<svg width="24px" height="24px" viewBox="0 0 24 24" version="1.1" xmlns="http://www.w3.org/2000/svg" xmlns:xlink="http://www.w3.org/1999/xlink">
  <defs>
    <linearGradient id="myLinearGradient1" x1="0%" y1="0%" x2="0%" y2="100%" spreadMethod="pad">
        <stop offset="0%" stop-color="#b452a3" stop-opacity="1"></stop>
        <stop offset="100%" stop-color="#7640a1" stop-opacity="1"></stop>
    </linearGradient>
  </defs>
  <g id="adults" style="fill:#8a9bae" stroke="none" stroke-width="1" fill="none" fill-rule="evenodd">
      <path d="M14.5946548,7.5 C15.2628096,7.5 15.8307326,7.6862806 16.298441,8.0588474 C16.7661493,8.4314142 17,8.99756114 17,9.75730519 L17,14.0746753 C17,14.3376637 16.9231634,14.5531647 16.7694878,14.7211851 C16.6158121,14.8892054 16.4253909,14.9732143 16.1982183,14.9732143 C15.9576825,14.9732143 15.7572391,14.8892054 15.596882,14.7211851 C15.4365248,14.5531647 15.3563474,14.3376637 15.3563474,14.0746753 L15.3563474,10.349026 L14.935412,10.349026 L14.935412,19.7946429 C14.935412,20.1306835 14.8285089,20.4155832 14.6146993,20.6493506 C14.4008898,20.8831181 14.1403133,21 13.8329621,21 C13.5122478,21 13.2483307,20.8831181 13.0412027,20.6493506 C12.8340747,20.4155832 12.7305122,20.1306835 12.7305122,19.7946429 L12.7305122,15.0170455 L12.2895323,15.0170455 L12.2895323,19.7946429 C12.2895323,20.1306835 12.1792884,20.4155832 11.9587973,20.6493506 C11.7383062,20.8831181 11.4677076,21 11.1469933,21 C10.8530052,21 10.5957695,20.8831181 10.3752784,20.6493506 C10.1547873,20.4155832 10.0445434,20.1306835 10.0445434,19.7946429 L10.0445434,10.349026 L9.62360802,10.349026 L9.62360802,14.0746753 C9.62360802,14.3376637 9.54343065,14.5531647 9.3830735,14.7211851 C9.22271635,14.8892054 9.02895437,14.9732143 8.80178174,14.9732143 C8.56124601,14.9732143 8.36748403,14.8892054 8.22048998,14.7211851 C8.07349592,14.5531647 8,14.3376637 8,14.0746753 L8,9.75730519 C8,8.99756114 8.23385067,8.4314142 8.70155902,8.0588474 C9.16926737,7.6862806 9.73719042,7.5 10.4053452,7.5 L14.5946548,7.5 Z M12.5119048,3 C12.8134936,3 13.1031732,3.05983983 13.3809524,3.17952128 C13.6587315,3.29920273 13.8968244,3.4587756 14.0952381,3.65824468 C14.2936518,3.85771376 14.4523804,4.09707307 14.5714286,4.37632979 C14.6904768,4.6555865 14.75,4.95478564 14.75,5.27393617 C14.75,5.57712918 14.6904768,5.86436035 14.5714286,6.1356383 C14.4523804,6.40691625 14.2936518,6.64228624 14.0952381,6.84175532 C13.8968244,7.0412244 13.6587315,7.20079727 13.3809524,7.32047872 C13.1031732,7.44016017 12.8134936,7.5 12.5119048,7.5 C12.1944429,7.5 11.8968268,7.44016017 11.6190476,7.32047872 C11.3412685,7.20079727 11.1031756,7.0412244 10.9047619,6.84175532 C10.7063482,6.64228624 10.5476196,6.40691625 10.4285714,6.1356383 C10.3095232,5.86436035 10.25,5.57712918 10.25,5.27393617 C10.25,4.63563511 10.4682518,4.09707666 10.9047619,3.65824468 C11.341272,3.2194127 11.876981,3 12.5119048,3 Z"></path>
  </g>
</svg>