<svg width="24px" height="24px" viewBox="0 0 24 24" version="1.1" xmlns="http://www.w3.org/2000/svg" xmlns:xlink="http://www.w3.org/1999/xlink">
    <g id="infants" style="fill:#8a9bae" stroke="none" stroke-width="1" fill="none" fill-rule="evenodd">
        <path d="M12.5032813,8.00282424 C12.1616033,8.00282424 11.8439542,7.93678102 11.5503246,7.80469259 C11.256695,7.67260416 10.9977709,7.49648889 10.7735447,7.27634151 C10.5493185,7.05619413 10.3731433,6.79477304 10.2450141,6.49207039 C10.1168848,6.18936774 10.0528211,5.86190342 10.0528211,5.50966761 C10.0528211,5.15743179 10.1168848,4.82996748 10.2450141,4.52726483 C10.3731433,4.22456218 10.5493185,3.96038928 10.7735447,3.73473821 C10.9977709,3.50908715 11.256695,3.33022008 11.5503246,3.19813165 C11.8439542,3.06604322 12.1616033,3 12.5032813,3 C12.834282,3 13.1492617,3.06604322 13.44823,3.19813165 C13.7471984,3.33022008 14.0061224,3.50908715 14.2250099,3.73473821 C14.4438974,3.96038928 14.6174032,4.22456218 14.7455325,4.52726483 C14.8736618,4.82996748 14.9377255,5.15743179 14.9377255,5.50966761 C14.9377255,5.86190342 14.8736618,6.18936774 14.7455325,6.49207039 C14.6174032,6.79477304 14.4438974,7.05619413 14.2250099,7.27634151 C14.0061224,7.49648889 13.7471984,7.67260416 13.44823,7.80469259 C13.1492617,7.93678102 12.834282,8.00282424 12.5032813,8.00282424 Z M14.8256129,12.6589181 L10.1649337,12.6589181 L10.1649337,11.0243319 L8.37113272,12.7579839 C8.16826136,12.9451092 7.96005441,13.0359186 7.74650561,13.0304149 C7.53295681,13.0249113 7.35945101,12.958868 7.22598301,12.8322833 C7.09251501,12.7056985 7.01777405,12.5433423 7.00175789,12.3452096 C6.98574173,12.147077 7.07916793,11.9489473 7.28203929,11.7508147 L10.2450141,8.91092765 C10.3624659,8.78984659 10.4905933,8.69628536 10.6294,8.63024114 C10.7682067,8.56419693 10.9443818,8.53117532 11.1579306,8.53117532 L13.8005838,8.53117532 C14.0141326,8.53117532 14.1956464,8.56419693 14.3451305,8.63024114 C14.4946147,8.69628536 14.6334193,8.78984659 14.7615486,8.91092765 L17.7405395,11.7838366 C17.9327334,11.9709619 18.0181516,12.163588 17.9967967,12.3617206 C17.9754419,12.5598533 17.8953623,12.7194577 17.7565555,12.8405388 C17.6177488,12.9616198 17.444243,13.0276631 17.2360329,13.0386704 C17.0278229,13.0496778 16.8329625,12.9616202 16.651446,12.7744949 L14.8256129,11.0243319 L14.8256129,12.6589181 Z M16.2990923,14.9209211 C16.4165441,15.0420022 16.499293,15.1768404 16.5473415,15.3254399 C16.59539,15.4740394 16.6140752,15.6281403 16.6033978,15.7877471 C16.5927203,15.947354 16.5526805,16.1014548 16.4832772,16.2500543 C16.4138738,16.3986538 16.3204476,16.5279884 16.2029958,16.6380621 L14.1209054,18.7184445 C13.918034,18.9165771 13.7098271,19.0101384 13.4962783,18.999131 C13.2827295,18.9881236 13.1092237,18.9165768 12.9757557,18.7844884 C12.8422877,18.6523999 12.7675467,18.4817883 12.7515306,18.2726483 C12.7355144,18.0635082 12.823602,17.859875 13.0157959,17.6617423 L14.3451305,16.4069085 L13.0638441,15.1685857 L14.8095968,13.4844666 L16.2990923,14.9209211 Z M10.1649337,13.4844666 L11.9267025,15.1685857 L10.6454161,16.4069085 L11.9427185,17.6617423 C12.1349125,17.859875 12.2256693,18.0635082 12.2149919,18.2726483 C12.2043145,18.4817883 12.1295735,18.6523999 11.9907668,18.7844884 C11.8519601,18.9165768 11.6757849,18.9881236 11.4622361,18.999131 C11.2486873,19.0101384 11.0404804,18.9165771 10.837609,18.7184445 L8.75551864,16.6380621 C8.64874424,16.5279884 8.56065668,16.3986538 8.49125332,16.2500543 C8.42184996,16.1014548 8.38181016,15.947354 8.37113272,15.7877471 C8.36045528,15.6281403 8.37914052,15.4740394 8.427189,15.3254399 C8.47523748,15.1768404 8.5579864,15.0420022 8.67543824,14.9209211 L10.1649337,13.4844666 Z"></path>
    </g>
</svg>