<svg xmlns="http://www.w3.org/2000/svg" viewBox="0 0 120 120" width="120" height="120" preserveAspectRatio="xMidYMid slice" style="width: 100%; height: 100%; transform: translate3d(0px, 0px, 0px);"><defs><clipPath id="__lottie_element_2"><rect width="120" height="120" x="0" y="0"></rect></clipPath><clipPath id="__lottie_element_7"><path d="M0,0 L120,0 L120,120 L0,120z"></path></clipPath><clipPath id="__lottie_element_8"><path fill="#ffffff" clip-rule="nonzero" d=" M143.99000549316406,-50.5 C143.99000549316406,-50.5 -25,-50.5 -25,-50.5 C-25,-50.5 -25,57.154998779296875 -25,57.154998779296875 C-25,57.154998779296875 143.99000549316406,57.154998779296875 143.99000549316406,57.154998779296875 C143.99000549316406,57.154998779296875 143.99000549316406,-50.5 143.99000549316406,-50.5" fill-opacity="1"></path></clipPath><clipPath id="__lottie_element_11"><path d="M0,0 L36,0 L36,36 L0,36z"></path></clipPath><clipPath id="__lottie_element_18"><path d="M0,0 L36,0 L36,36 L0,36z"></path></clipPath><clipPath id="__lottie_element_25"><path d="M0,0 L36,0 L36,36 L0,36z"></path></clipPath><clipPath id="__lottie_element_32"><path d="M0,0 L36,0 L36,36 L0,36z"></path></clipPath><clipPath id="__lottie_element_39"><path d="M0,0 L36,0 L36,36 L0,36z"></path></clipPath><clipPath id="__lottie_element_46"><path d="M0,0 L36,0 L36,36 L0,36z"></path></clipPath></defs><g clip-path="url(#__lottie_element_2)"><g clip-path="url(#__lottie_element_7)" transform="matrix(1,0,0,1,0.5,-7.5)" opacity="1" style="display: block;"><g clip-path="url(#__lottie_element_8)"><g clip-path="url(#__lottie_element_46)" transform="matrix(0.7222200036048889,0,0,0.7222200036048889,81.00003814697266,-9.249959945678711)" opacity="0" style="display: block;"><g transform="matrix(1,0,0,1,18,18)" opacity="1" style="display: block;"><g opacity="1" transform="matrix(1,0,0,1,0,0)"><path fill="rgb(180,82,163)" fill-opacity="1" d=" M7.347880586115415e-16,-12 C7.347880586115415e-16,-12 2.1213202476501465,-2.1213202476501465 2.1213202476501465,-2.1213202476501465 C2.1213202476501465,-2.1213202476501465 12,0 12,0 C12,0 2.1213202476501465,2.1213202476501465 2.1213202476501465,2.1213202476501465 C2.1213202476501465,2.1213202476501465 7.347880586115415e-16,12 7.347880586115415e-16,12 C7.347880586115415e-16,12 -2.1213202476501465,2.1213202476501465 -2.1213202476501465,2.1213202476501465 C-2.1213202476501465,2.1213202476501465 -12,1.469576117223083e-15 -12,1.469576117223083e-15 C-12,1.469576117223083e-15 -2.1213202476501465,-2.1213202476501465 -2.1213202476501465,-2.1213202476501465 C-2.1213202476501465,-2.1213202476501465 7.347880586115415e-16,-12 7.347880586115415e-16,-12z"></path></g></g></g><g clip-path="url(#__lottie_element_39)" transform="matrix(0.7224960327148438,0,0,0.7224960327148438,28.115360260009766,11.258560180664062)" opacity="0.0408072755096407" style="display: block;"><g transform="matrix(1,0,0,1,18,18)" opacity="1" style="display: block;"><g opacity="1" transform="matrix(1,0,0,1,0,0)"><path fill="rgb(180,82,163)" fill-opacity="1" d=" M7.347880586115415e-16,-12 C7.347880586115415e-16,-12 2.1213202476501465,-2.1213202476501465 2.1213202476501465,-2.1213202476501465 C2.1213202476501465,-2.1213202476501465 12,0 12,0 C12,0 2.1213202476501465,2.1213202476501465 2.1213202476501465,2.1213202476501465 C2.1213202476501465,2.1213202476501465 7.347880586115415e-16,12 7.347880586115415e-16,12 C7.347880586115415e-16,12 -2.1213202476501465,2.1213202476501465 -2.1213202476501465,2.1213202476501465 C-2.1213202476501465,2.1213202476501465 -12,1.469576117223083e-15 -12,1.469576117223083e-15 C-12,1.469576117223083e-15 -2.1213202476501465,-2.1213202476501465 -2.1213202476501465,-2.1213202476501465 C-2.1213202476501465,-2.1213202476501465 7.347880586115415e-16,-12 7.347880586115415e-16,-12z"></path></g></g></g><g clip-path="url(#__lottie_element_32)" transform="matrix(0.4166699945926666,0,0,0.4166699945926666,71.49993896484375,-14.000060081481934)" opacity="0" style="display: block;"><g transform="matrix(1,0,0,1,18,18)" opacity="1" style="display: block;"><g opacity="1" transform="matrix(1,0,0,1,0,0)"><path fill="rgb(180,82,163)" fill-opacity="1" d=" M7.347880586115415e-16,-12 C7.347880586115415e-16,-12 2.1213202476501465,-2.1213202476501465 2.1213202476501465,-2.1213202476501465 C2.1213202476501465,-2.1213202476501465 12,0 12,0 C12,0 2.1213202476501465,2.1213202476501465 2.1213202476501465,2.1213202476501465 C2.1213202476501465,2.1213202476501465 7.347880586115415e-16,12 7.347880586115415e-16,12 C7.347880586115415e-16,12 -2.1213202476501465,2.1213202476501465 -2.1213202476501465,2.1213202476501465 C-2.1213202476501465,2.1213202476501465 -12,1.469576117223083e-15 -12,1.469576117223083e-15 C-12,1.469576117223083e-15 -2.1213202476501465,-2.1213202476501465 -2.1213202476501465,-2.1213202476501465 C-2.1213202476501465,-2.1213202476501465 7.347880586115415e-16,-12 7.347880586115415e-16,-12z"></path></g></g></g><g clip-path="url(#__lottie_element_25)" transform="matrix(0.44494032859802246,0,0,0.44494032859802246,74.46746063232422,9.546798706054688)" opacity="0.006460202057045165" style="display: block;"><g transform="matrix(1,0,0,1,18,18)" opacity="1" style="display: block;"><g opacity="1" transform="matrix(1,0,0,1,0,0)"><path fill="rgb(180,82,163)" fill-opacity="1" d=" M7.347880586115415e-16,-12 C7.347880586115415e-16,-12 2.1213202476501465,-2.1213202476501465 2.1213202476501465,-2.1213202476501465 C2.1213202476501465,-2.1213202476501465 12,0 12,0 C12,0 2.1213202476501465,2.1213202476501465 2.1213202476501465,2.1213202476501465 C2.1213202476501465,2.1213202476501465 7.347880586115415e-16,12 7.347880586115415e-16,12 C7.347880586115415e-16,12 -2.1213202476501465,2.1213202476501465 -2.1213202476501465,2.1213202476501465 C-2.1213202476501465,2.1213202476501465 -12,1.469576117223083e-15 -12,1.469576117223083e-15 C-12,1.469576117223083e-15 -2.1213202476501465,-2.1213202476501465 -2.1213202476501465,-2.1213202476501465 C-2.1213202476501465,-2.1213202476501465 7.347880586115415e-16,-12 7.347880586115415e-16,-12z"></path></g></g></g><g clip-path="url(#__lottie_element_18)" transform="matrix(0.5277799963951111,0,0,0.5277799963951111,28.99995994567871,-21.00004005432129)" opacity="0" style="display: block;"><g transform="matrix(1,0,0,1,18,18)" opacity="1" style="display: block;"><g opacity="1" transform="matrix(1,0,0,1,0,0)"><path fill="rgb(180,82,163)" fill-opacity="1" d=" M7.347880586115415e-16,-12 C7.347880586115415e-16,-12 2.1213202476501465,-2.1213202476501465 2.1213202476501465,-2.1213202476501465 C2.1213202476501465,-2.1213202476501465 12,0 12,0 C12,0 2.1213202476501465,2.1213202476501465 2.1213202476501465,2.1213202476501465 C2.1213202476501465,2.1213202476501465 7.347880586115415e-16,12 7.347880586115415e-16,12 C7.347880586115415e-16,12 -2.1213202476501465,2.1213202476501465 -2.1213202476501465,2.1213202476501465 C-2.1213202476501465,2.1213202476501465 -12,1.469576117223083e-15 -12,1.469576117223083e-15 C-12,1.469576117223083e-15 -2.1213202476501465,-2.1213202476501465 -2.1213202476501465,-2.1213202476501465 C-2.1213202476501465,-2.1213202476501465 7.347880586115415e-16,-12 7.347880586115415e-16,-12z"></path></g></g></g><g clip-path="url(#__lottie_element_11)" transform="matrix(0.6111099720001221,0,0,0.6111099720001221,42.000022888183594,1.000020980834961)" opacity="0" style="display: block;"><g transform="matrix(1,0,0,1,18,18)" opacity="1" style="display: block;"><g opacity="1" transform="matrix(1,0,0,1,0,0)"><path fill="rgb(180,82,163)" fill-opacity="1" d=" M7.347880586115415e-16,-12 C7.347880586115415e-16,-12 2.1213202476501465,-2.1213202476501465 2.1213202476501465,-2.1213202476501465 C2.1213202476501465,-2.1213202476501465 12,0 12,0 C12,0 2.1213202476501465,2.1213202476501465 2.1213202476501465,2.1213202476501465 C2.1213202476501465,2.1213202476501465 7.347880586115415e-16,12 7.347880586115415e-16,12 C7.347880586115415e-16,12 -2.1213202476501465,2.1213202476501465 -2.1213202476501465,2.1213202476501465 C-2.1213202476501465,2.1213202476501465 -12,1.469576117223083e-15 -12,1.469576117223083e-15 C-12,1.469576117223083e-15 -2.1213202476501465,-2.1213202476501465 -2.1213202476501465,-2.1213202476501465 C-2.1213202476501465,-2.1213202476501465 7.347880586115415e-16,-12 7.347880586115415e-16,-12z"></path></g></g></g></g></g><g transform="matrix(0.1875,0,0,0.1875,30,27.49956512451172)" opacity="1" style="display: block;"><g opacity="1" transform="matrix(1,0,0,1,160.0070037841797,160)"><path fill="rgb(180,82,163)" fill-opacity="1" d=" M82.22799682617188,22.9060001373291 C84.94599914550781,19.23200035095215 86.6449966430664,15.156000137329102 87.3239974975586,10.678000450134277 C88.00399780273438,6.199999809265137 87.89099884033203,1.722000002861023 86.98500061035156,-2.75600004196167 C86.0790023803711,-7.234000205993652 84.26699829101562,-11.482000350952148 81.5479965209961,-15.50100040435791 C78.83000183105469,-19.518999099731445 75.43199920654297,-23.13599967956543 71.3550033569336,-26.35099983215332 C67.0510025024414,-29.56599998474121 62.57699966430664,-31.863000869750977 57.93299865722656,-33.2400016784668 C53.28900146484375,-34.61800003051758 48.70199966430664,-35.1349983215332 44.172000885009766,-34.790000915527344 C39.64099884033203,-34.44599914550781 35.45000076293945,-33.29800033569336 31.600000381469727,-31.34600067138672 C27.74799919128418,-29.393999099731445 24.464000701904297,-26.58099937438965 21.7450008392334,-22.906999588012695 C18.801000595092773,-19.003000259399414 17.045000076293945,-14.696999549865723 16.479000091552734,-9.989999771118164 C15.911999702453613,-5.2820000648498535 16.19499969482422,-0.6320000290870667 17.327999114990234,3.9609999656677246 C14.611000061035156,3.0429999828338623 11.835000038146973,2.2960000038146973 9.003999710083008,1.722000002861023 C6.171999931335449,1.1480000019073486 3.1710000038146973,0.8610000014305115 -0.0010000000474974513,0.8610000014305115 C-3.171999931335449,0.8610000014305115 -6.173999786376953,1.1480000019073486 -9.005000114440918,1.722000002861023 C-11.836999893188477,2.2960000038146973 -14.611000061035156,3.0429999828338623 -17.329999923706055,3.9609999656677246 C-16.19700050354004,-0.6320000290870667 -15.913999557495117,-5.2820000648498535 -16.479999542236328,-9.989999771118164 C-17.047000885009766,-14.696999549865723 -18.80299949645996,-19.003000259399414 -21.746999740600586,-22.906999588012695 C-24.465999603271484,-26.58099937438965 -27.75,-29.393999099731445 -31.60099983215332,-31.34600067138672 C-35.45199966430664,-33.29800033569336 -39.641998291015625,-34.44599914550781 -44.17300033569336,-34.790000915527344 C-48.70399856567383,-35.1349983215332 -53.34700012207031,-34.61800003051758 -58.104000091552734,-33.2400016784668 C-62.861000061035156,-31.863000869750977 -67.27799987792969,-29.56599998474121 -71.35600280761719,-26.35099983215332 C-75.43299865722656,-23.13599967956543 -78.83100128173828,-19.518999099731445 -81.55000305175781,-15.50100040435791 C-84.26799774169922,-11.482000350952148 -86.08000183105469,-7.234000205993652 -86.98600006103516,-2.75600004196167 C-87.89199829101562,1.722000002861023 -88.00599670410156,6.199999809265137 -87.32599639892578,10.678000450134277 C-86.64600372314453,15.156000137329102 -84.9469985961914,19.23200035095215 -82.22899627685547,22.9060001373291 C-78.60399627685547,27.729000091552734 -73.96099853515625,31.115999221801758 -68.2979965209961,33.06800079345703 C-62.6349983215332,35.02000045776367 -56.858001708984375,35.422000885009766 -50.96900177001953,34.27299880981445 C-54.13999938964844,41.85100173950195 -55.724998474121094,49.659000396728516 -55.724998474121094,57.69599914550781 C-55.724998474121094,65.50399780273438 -54.25400161743164,72.79499816894531 -51.30799865722656,79.56900024414062 C-48.36399841308594,86.34300231933594 -44.39899826049805,92.31400299072266 -39.41600036621094,97.48100280761719 C-34.43199920654297,102.64800262451172 -28.542999267578125,106.7239990234375 -21.746999740600586,109.70899963378906 C-14.951000213623047,112.69400024414062 -7.703000068664551,114.18699645996094 -0.0010000000474974513,114.18699645996094 C7.701000213623047,114.18699645996094 14.949999809265137,112.69400024414062 21.7450008392334,109.70899963378906 C28.541000366210938,106.7239990234375 34.430999755859375,102.64800262451172 39.41400146484375,97.48100280761719 C44.39899826049805,92.31400299072266 48.36199951171875,86.34300231933594 51.30699920654297,79.56900024414062 C54.25199890136719,72.79499816894531 55.724998474121094,65.50399780273438 55.724998474121094,57.69599914550781 C55.724998474121094,49.42900085449219 54.0260009765625,41.62200164794922 50.62799835205078,34.27299880981445 C56.74300003051758,35.422000885009766 62.632999420166016,35.02000045776367 68.2969970703125,33.06800079345703 C73.95999908447266,31.115999221801758 78.60399627685547,27.729000091552734 82.22799682617188,22.9060001373291z M-38.736000061035156,-80.08599853515625 C-38.736000061035156,-80.08599853515625 38.736000061035156,-80.08599853515625 38.736000061035156,-80.08599853515625 C38.736000061035156,-80.08599853515625 38.736000061035156,-107.64299774169922 38.736000061035156,-107.64299774169922 C38.736000061035156,-111.08699798583984 37.88600158691406,-114.64700317382812 36.1870002746582,-118.32099914550781 C34.48699951171875,-121.99500274658203 31.996000289916992,-125.44000244140625 28.711000442504883,-128.65499877929688 C25.427000045776367,-131.86900329589844 21.405000686645508,-134.51100158691406 16.64900016784668,-136.57699584960938 C11.892000198364258,-138.6439971923828 6.3420000076293945,-139.677001953125 -0.0010000000474974513,-139.677001953125 C-11.553999900817871,-139.677001953125 -20.89699935913086,-136.69200134277344 -28.033000946044922,-130.7220001220703 C-35.16899871826172,-124.7509994506836 -38.736000061035156,-116.94300079345703 -38.736000061035156,-107.2979965209961 C-38.736000061035156,-107.2979965209961 -38.736000061035156,-80.08599853515625 -38.736000061035156,-80.08599853515625z M-58.784000396728516,-106.26499938964844 C-58.784000396728516,-114.072998046875 -57.31100082397461,-121.2490005493164 -54.367000579833984,-127.79399871826172 C-51.422000885009766,-134.33799743652344 -47.345001220703125,-140.02200317382812 -42.1349983215332,-144.843994140625 C-36.92499923706055,-149.66600036621094 -30.75200080871582,-153.3979949951172 -23.615999221801758,-156.03900146484375 C-16.479999542236328,-158.67999267578125 -8.607999801635742,-160 -0.0010000000474974513,-160 C9.060999870300293,-160 17.21500015258789,-158.39300537109375 24.464000701904297,-155.17799377441406 C31.71299934387207,-151.96299743652344 37.88600158691406,-147.82899475097656 42.983001708984375,-142.77699279785156 C48.07899856567383,-137.72500610351562 51.98699951171875,-132.04200744628906 54.70500183105469,-125.72699737548828 C57.42300033569336,-119.41100311279297 58.78200149536133,-113.15399932861328 58.78200149536133,-106.9540023803711 C58.78200149536133,-106.9540023803711 58.78200149536133,-80.08599853515625 58.78200149536133,-80.08599853515625 C58.78200149536133,-80.08599853515625 107.03199768066406,-80.08599853515625 107.03199768066406,-80.08599853515625 C110.88300323486328,-80.08599853515625 114.16799926757812,-78.88099670410156 116.88600158691406,-76.47000122070312 C119.6050033569336,-74.05799865722656 121.07599639892578,-70.9010009765625 121.3030014038086,-66.99700164794922 C121.3030014038086,-66.99700164794922 124.28900146484375,-26.042999267578125 125.80799865722656,32.64500045776367 C127.3270034790039,91.33300018310547 130.8179931640625,143.46600341796875 130.8179931640625,143.46600341796875 C131.27099609375,147.5989990234375 129.91099548339844,151.2740020751953 126.73999786376953,154.48800659179688 C125.38099670410156,155.86599731445312 123.79499816894531,157.1300048828125 121.98300170898438,158.27699279785156 C120.1709976196289,159.42599487304688 118.35900115966797,160 116.5459976196289,160 C116.5459976196289,160 57.99300003051758,160 -3.3399999141693115,160 C-64.6729965209961,160 -116.5479965209961,160 -116.5479965209961,160 C-118.81300354003906,160 -120.90799713134766,159.48300170898438 -122.83399963378906,158.4499969482422 C-124.76000213623047,157.41600036621094 -126.28800201416016,156.21099853515625 -127.4209976196289,154.83299255371094 C-130.13900756835938,152.07699584960938 -131.27099609375,148.63299560546875 -130.81900024414062,144.49899291992188 C-130.81900024414062,144.49899291992188 -126.54000091552734,79.39700317382812 -125.94000244140625,32.03200149536133 C-125.33999633789062,-15.333000183105469 -121.64399719238281,-66.99700164794922 -121.64399719238281,-66.99700164794922 C-121.41799926757812,-70.9010009765625 -119.88800048828125,-74.05799865722656 -117.05699920654297,-76.47000122070312 C-114.2249984741211,-78.88099670410156 -110.88500213623047,-80.08599853515625 -107.03399658203125,-80.08599853515625 C-107.03399658203125,-80.08599853515625 -58.784000396728516,-80.08599853515625 -58.784000396728516,-80.08599853515625"></path></g></g></g></svg>