<svg width="30px" height="22px" id="child" viewBox="0 0 24 24" version="1.1" xmlns="http://www.w3.org/2000/svg" xmlns:xlink="http://www.w3.org/1999/xlink">
<defs>
  <linearGradient id="myLinearGradient1" x1="0%" y1="0%" x2="0%" y2="100%" spreadMethod="pad">
    <stop offset="0%" stop-color="#b452a3" stop-opacity="1"></stop>
    <stop offset="100%" stop-color="#7640a1" stop-opacity="1"></stop>
  </linearGradient>
</defs>
<g id="child" style="fill:#8a9bae" stroke="none" stroke-width="1" fill="none" fill-rule="evenodd">
    <path d="M18.7390046,7.99517082 L15.1481481,11.1271552 L15.1481481,19.9653576 C15.1481481,20.2942875 15.0128762,20.5767381 14.7423322,20.8127095 C14.4717882,21.048681 14.1479552,21.1666667 13.7708333,21.1666667 C13.3937114,21.1666667 13.0698785,21.048681 12.7993345,20.8127095 C12.5287905,20.5767381 12.3935185,20.2942875 12.3935185,19.9653576 L12.3935185,15.8465837 L11.6064815,15.8465837 L11.6064815,19.9653576 C11.6064815,20.2942875 11.4712095,20.5767381 11.2006655,20.8127095 C10.9301215,21.048681 10.6062886,21.1666667 10.2291667,21.1666667 C9.85204475,21.1666667 9.52821181,21.048681 9.25766782,20.8127095 C8.98712384,20.5767381 8.85185185,20.2942875 8.85185185,19.9653576 L8.85185185,11.1271552 L5.26099537,7.99517082 C5.0314429,7.79495264 4.91666667,7.55183057 4.91666667,7.2658046 C4.91666667,6.97977863 5.0314429,6.73665656 5.26099537,6.53643838 C5.49054784,6.3362202 5.76929012,6.23611111 6.09722222,6.23611111 C6.42515432,6.23611111 6.7038966,6.3362202 6.93344907,6.53643838 L9.73726852,8.98196041 L14.2627315,8.98196041 L17.0665509,6.53643838 C17.2961034,6.3362202 17.5748457,6.23611111 17.9027778,6.23611111 C18.2307099,6.23611111 18.5094522,6.3362202 18.7390046,6.53643838 C18.9685571,6.73665656 19.0833333,6.97977863 19.0833333,7.2658046 C19.0833333,7.55183057 18.9685571,7.79495264 18.7390046,7.99517082 Z" id="Path"></path>
    <path d="M14.5297619,5.73842593 C14.5297619,6.42718667 14.2831854,7.01411451 13.7900324,7.49920945 C13.2968794,7.98430438 12.700202,8.22685185 12,8.22685185 C11.299798,8.22685185 10.7031206,7.98430438 10.2099676,7.49920945 C9.71681459,7.01411451 9.4702381,6.42718667 9.4702381,5.73842593 C9.4702381,5.04966518 9.71681459,4.46273734 10.2099676,3.9776424 C10.7031206,3.49254747 11.299798,3.25 12,3.25 C12.700202,3.25 13.2968794,3.49254747 13.7900324,3.9776424 C14.2831854,4.46273734 14.5297619,5.04966518 14.5297619,5.73842593 Z" id="Path"></path>
</g>
</svg>