<svg viewBox="0 0 24 24" version="1.1" xmlns="http://www.w3.org/2000/svg" xlink="http://www.w3.org/1999/xlink"><g id="Assets-/-♠️-Pictos-/-Hotel" fill="#263656"><path d="M5.33332071,12.3368794 L5.37816359,12.3368794 L5.37816359,11.5537825 C5.37816359,11.2779734 5.43047976,11.0144812 5.53511367,10.7632979 C5.63974757,10.5121146 5.7867311,10.2929481 5.97606865,10.105792 C6.1654062,9.91863579 6.38214461,9.77088313 6.6262904,9.66252955 C6.87043619,9.55417598 7.13699953,9.5 7.42598842,9.5 L9.89234679,9.5 C10.1813357,9.5 10.4503903,9.55417598 10.6995186,9.66252955 C10.948647,9.77088313 11.1678766,9.91863579 11.3572142,10.105792 C11.5465517,10.2929481 11.6935353,10.5121146 11.7981692,10.7632979 C11.9028031,11.0144812 11.9551192,11.2779734 11.9551192,11.5537825 L11.9551192,12.3368794 L11.9850145,12.3368794 L11.9850145,22 L5.33332071,22 L5.33332071,12.3368794 Z M6.75334523,12.3368794 L10.56499,12.3368794 L10.56499,11.5537825 C10.56499,11.3666263 10.4977263,11.2090235 10.363197,11.0809693 C10.2286677,10.952915 10.0717192,10.8888889 9.89234679,10.8888889 L7.42598842,10.8888889 C7.246616,10.8888889 7.08966749,10.952915 6.95513818,11.0809693 C6.82060887,11.2090235 6.75334523,11.3666263 6.75334523,11.5537825 L6.75334523,12.3368794 Z M6.66365947,15.2180851 C6.41453111,15.3855406 6.24761762,15.5948569 6.16291398,15.8460402 C6.07821034,16.0972235 6.10063155,16.3262401 6.2301783,16.5330969 C6.32982964,16.6808518 6.46435693,16.7818161 6.63376421,16.8359929 C6.80317149,16.8901697 6.98254122,16.9024824 7.17187877,16.8729314 C7.04233202,17.1290399 6.97755962,17.3851445 6.97755962,17.641253 C6.97755962,17.8776608 7.01991081,18.0968272 7.10461445,18.2987589 C7.18931809,18.5006905 7.3088979,18.6779937 7.46335748,18.8306738 C7.61781706,18.9833538 7.79718679,19.1015559 8.00147204,19.1852837 C8.20575729,19.2690115 8.4274782,19.3108747 8.66664142,19.3108747 C8.90580464,19.3108747 9.12752555,19.2690115 9.3318108,19.1852837 C9.53609605,19.1015559 9.71297452,18.9833538 9.86245154,18.8306738 C10.0119285,18.6779937 10.1290171,18.5006905 10.2137208,18.2987589 C10.2984244,18.0968272 10.3407756,17.8776608 10.3407756,17.641253 C10.3407756,17.3949948 10.2809857,17.1388902 10.1614041,16.8729314 C10.3507416,16.9024824 10.5276201,16.8901697 10.6920448,16.8359929 C10.8564695,16.7818161 10.9885056,16.6808518 11.0881569,16.5330969 C11.2276688,16.3262401 11.2550725,16.0972235 11.1703689,15.8460402 C11.0856652,15.5948569 10.9187517,15.3855406 10.6696234,15.2180851 C10.420495,15.0604799 10.1614054,14.9964538 9.89234679,15.0260047 C9.62328817,15.0555557 9.41900598,15.1786829 9.2794941,15.3953901 C9.13998223,15.6120972 9.12005226,15.8386513 9.2197036,16.0750591 C9.01043578,16.0159572 8.82608356,15.9864066 8.66664142,15.9864066 C8.50719927,15.9864066 8.31786456,16.0159572 8.09863161,16.0750591 C8.13849215,15.9667055 8.15593087,15.8509659 8.1509483,15.7278369 C8.14596574,15.6047078 8.11357954,15.4938933 8.05378873,15.3953901 C7.91427685,15.1786829 7.70999467,15.0555557 7.44093604,15.0260047 C7.17187742,14.9964538 6.91278782,15.0604799 6.66365947,15.2180851 Z M4.64572989,22 L2.97159572,22 C2.7025371,22 2.47334245,21.9088859 2.2840049,21.7266548 C2.09466735,21.5444238 2,21.3154072 2,21.0395981 L2,13.2972813 C2,13.0313225 2.09466735,12.8047685 2.2840049,12.6176123 C2.47334245,12.4304561 2.7025371,12.3368794 2.97159572,12.3368794 L4.64572989,12.3368794 L4.64572989,22 Z M14.3616871,12.3368794 C14.6207806,12.3368794 14.8449928,12.4304561 15.0343303,12.6176123 C15.2236679,12.8047685 15.3183352,13.0313225 15.3183352,13.2972813 L15.3183352,21.0395981 C15.3183352,21.3154072 15.2236679,21.5444238 15.0343303,21.7266548 C14.8449928,21.9088859 14.6207806,22 14.3616871,22 L12.6875529,22 L12.6875529,12.3368794 L14.3616871,12.3368794 Z M4.57217848,7.58970386 C4.50218688,7.58970386 4.4671916,7.56043418 4.4671916,7.50189394 L4.12223472,5.67252066 L2.9223847,5.35055096 C2.8623919,5.33103755 2.83239595,5.29201131 2.83239595,5.23347107 C2.83239595,5.16517413 2.8623919,5.13102617 2.9223847,5.13102617 L4.12223472,4.80905647 L4.4671916,2.92114325 C4.4671916,2.86260301 4.50218688,2.83333333 4.57217848,2.83333333 C4.64217008,2.83333333 4.67716535,2.86260301 4.67716535,2.92114325 L5.02212223,4.80905647 L6.191976,5.13102617 C6.2519688,5.13102617 6.28196475,5.16517413 6.28196475,5.23347107 C6.28196475,5.29201131 6.2519688,5.33103755 6.191976,5.35055096 L5.02212223,5.67252066 L4.67716535,7.50189394 C4.67716535,7.56043418 4.64217008,7.58970386 4.57217848,7.58970386 Z M20.7401575,5.33677686 C20.7201599,5.3953171 20.6801653,5.42458678 20.6201725,5.42458678 C20.5501809,5.42458678 20.5151856,5.3953171 20.5151856,5.33677686 L20.3502062,4.32696281 L19.5853018,4.15134298 C19.5153102,4.15134298 19.480315,4.11719502 19.480315,4.04889807 C19.480315,3.98060113 19.5153102,3.94645317 19.5853018,3.94645317 L20.3502062,3.75619835 L20.5151856,2.08780992 C20.5151856,2.02926968 20.5501809,2 20.6201725,2 C20.6801653,2 20.7201599,2.02926968 20.7401575,2.08780992 L20.9351331,3.75619835 L21.8950131,3.94645317 C21.9650047,3.94645317 22,3.98060113 22,4.04889807 C22,4.11719502 21.9650047,4.15134298 21.8950131,4.15134298 L20.9351331,4.32696281 L20.7401575,5.33677686 Z M18.8953881,19.1935262 C18.8953881,19.3398768 18.8428952,19.4642729 18.7379078,19.5667183 C18.6329204,19.6691637 18.5054376,19.7203857 18.3554556,19.7203857 C18.2054736,19.7203857 18.0779908,19.6691637 17.9730034,19.5667183 C17.868016,19.4642729 17.8155231,19.3398768 17.8155231,19.1935262 C17.8155231,19.0471756 17.868016,18.9227794 17.9730034,18.820334 C18.0779908,18.7178886 18.2054736,18.6666667 18.3554556,18.6666667 C18.5054376,18.6666667 18.6329204,18.7178886 18.7379078,18.820334 C18.8428952,18.9227794 18.8953881,19.0471756 18.8953881,19.1935262 Z" id="{Picto-CommerceTickets-Color}"></path><g id="Opacity" opacity="0.800000012" transform="translate(9.447331, 4.296399)"><path d="M12.2742366,7.59429714 C12.4428887,7.76313915 12.4812381,7.93579587 12.3892861,8.11227249 L8.0557014,12.7540749 L6.75072208,14.1419853 L6.75072208,8.91053496 C6.75072208,7.99006037 6.00536936,7.24386829 5.08593018,7.24386829 L3.24022169,7.24386829 L3.24022169,7.07824857 C3.24022169,5.69753669 2.1221926,4.57824857 0.743033837,4.57824857 L0,4.57824857 L4.15509042,0.17864743 C4.22730624,0.106350289 4.2738421,0.0703144903 4.2946994,0.0705389524 C4.4707533,-0.0423974545 4.6378334,-0.0197213095 4.79594473,0.138568068 L4.81175578,0.154396926 C5.03311163,0.376002054 5.29281432,0.527553115 5.59087164,0.609054656 C5.88892895,0.690556197 6.18866407,0.685952613 6.49008598,0.595243767 C6.77087479,0.525191247 7.02474739,0.376557423 7.25171139,0.149337837 L7.26718613,0.13384567 C7.40130122,-0.000420449611 7.56793291,-0.0195052546 7.76708621,0.0765906823 C7.79848426,0.0873677695 7.85634544,0.1349661 7.94067148,0.219387101 L12.1780338,4.4615212 C12.2834413,4.56704745 12.346797,4.64080249 12.3681027,4.68278853 C12.4120594,4.89204533 12.3824555,5.04831221 12.27929,5.15159384 L12.2638153,5.167086 C11.9233693,5.50791538 11.7556712,5.91323286 11.7607159,6.38305059 C11.7657606,6.85286833 11.9369325,7.25661314 12.2742366,7.59429714 Z" id="Combined-Shape"></path></g></g></svg>