<?xml version="1.0" encoding="utf-8"?>
<!DOCTYPE svg PUBLIC "-//W3C//DTD SVG 1.1//EN" "http://www.w3.org/Graphics/SVG/1.1/DTD/svg11.dtd">
<svg version="1.1" xmlns="http://www.w3.org/2000/svg" xmlns:xlink="http://www.w3.org/1999/xlink" x="0px" y="0px" viewBox="0 0 1000 1000" enable-background="new 0 0 1000 1000" xml:space="preserve">
<g><path d="M513,38.7l139.4,292.8c0,7,7,7,7,7l320.7,41.8c7,0,13.9,13.9,7,20.9l-237,223.1c0,0-7,7-7,13.9l62.7,320.7c0,7-7,13.9-13.9,13.9L506.1,819.5c-7,0-7,0-13.9,0L213.3,958.9c-7,7-20.9,0-13.9-13.9l62.7-320.7c0-7,0-7-7-13.9L18,394.2c-13.9-7-7-13.9,0-20.9l320.7-41.8c7,0,7,0,7-7L485.2,31.7C492.1,24.7,506.1,24.7,513,38.7z"/></g>
</svg>